<svg xmlns="http://www.w3.org/2000/svg" version="1.1" xmlns:xlink="http://www.w3.org/1999/xlink" xmlns:svgjs="http://svgjs.com/svgjs" width="26" height="26"><svg width="26" height="26" fill="none" xmlns="http://www.w3.org/2000/svg"><path d="M12.724 0C6.256-.004.817 4.954.086 11.52.03 12.01.002 12.505 0 13c.008 7.176 5.7 12.992 12.724 13h10.665c1.137 0 2.058-.942 2.058-2.103 0-1.162-.921-2.104-2.058-2.104h-1.81c-2.7 0-4.664-2.045-4.664-4.863V13c0-2.365-1.876-4.283-4.191-4.283S8.532 10.635 8.532 13s1.877 4.283 4.192 4.283c1.136-.003 2.088.878 2.198 2.033v.438c-.106 1.158-1.06 2.043-2.198 2.04-4.749-.012-8.595-3.942-8.607-8.794-.004-4.564 3.41-8.374 7.86-8.77 4.45-.395 8.458 2.754 9.225 7.25.088.502.131 1.01.131 1.52v3.058c0 1.161.922 2.103 2.059 2.103s2.058-.942 2.058-2.103v-3.04c-.001-.494-.03-.989-.086-1.48C24.64 4.965 19.198-.002 12.724 0Z" fill="#E30613"></path></svg><style>@media (prefers-color-scheme: light) { :root { filter: none; } }
</style></svg>