<?xml version="1.0" standalone="no"?><!DOCTYPE svg PUBLIC "-//W3C//DTD SVG 1.1//EN" "http://www.w3.org/Graphics/SVG/1.1/DTD/svg11.dtd"><svg t="1718261406873" class="icon" viewBox="0 0 1024 1024" version="1.1" xmlns="http://www.w3.org/2000/svg" p-id="11780" xmlns:xlink="http://www.w3.org/1999/xlink" width="200" height="200"><path d="M0 0m192 0l640 0q192 0 192 192l0 640q0 192-192 192l-640 0q-192 0-192-192l0-640q0-192 192-192Z" fill="#000000" p-id="11781"></path><path d="M832 265.536H601.344v565.824H832V265.472z m-161.408 496.64V334.528h92.8v427.648h-92.8zM350.08 483.584V333.696h68.736v149.888H563.84l16.704 68.992H418.88v34.56l160.832 244.224H498.304l-113.984-170.88L274.56 832H192l158.08-245.12v-34.304H192.448V483.584h157.76z" fill="#FFFFFF" p-id="11782"></path><path d="M255.616 192l-63.232 142.784H562.56V265.152H298.752l19.776-45.44L255.616 192z" fill="#FFFFFF" p-id="11783"></path></svg>